<svg width="40" height="40" viewBox="0 0 40 40" fill="none" xmlns="http://www.w3.org/2000/svg">
<path d="M28.9009 21.9131L26.2352 24.5788L23.5666 21.9103L29.9693 15.5076C30.6732 15.7057 31.3917 15.8026 32.1062 15.8026C34.1621 15.8024 36.1806 14.9991 37.6886 13.4912C39.9068 11.273 40.6003 7.95114 39.4554 5.0284L38.8024 3.36143L34.6118 7.55212L32.9198 7.09868L32.4663 5.40657L36.6569 1.21595L34.9901 0.563075C32.0676 -0.581659 28.7457 0.11174 26.5274 2.32992C24.4954 4.36194 23.7428 7.32005 24.5111 10.0491L18.1084 16.4518L9.51043 7.85392L11.7915 5.57289L4.72129 0L0 4.72121L5.57281 11.7915L7.854 9.51043L16.4519 18.1084L10.7998 23.7605C7.86439 22.841 4.66186 23.6092 2.45243 25.8186C0.88346 27.3876 0.0193652 29.4736 0.0193652 31.6924C0.0193652 33.9112 0.88346 35.9973 2.45243 37.5663C4.07185 39.1857 6.19898 39.9953 8.32626 39.9953C10.4535 39.9953 12.5807 39.1857 14.2001 37.5663C16.4095 35.3568 17.1777 32.1542 16.2582 29.2189L21.9103 23.5668L24.5789 26.2353L21.9131 28.9011L31.564 38.5519C32.4972 39.4852 33.7381 39.9992 35.058 39.9992C36.3778 39.9992 37.6186 39.4852 38.5519 38.5519C40.4785 36.6253 40.4785 33.4907 38.5519 31.5641L28.9009 21.9131ZM3.12834 4.90588L4.90596 3.12826L8.2709 5.7806L5.78067 8.27082L3.12834 4.90588ZM27.2213 10.6517L26.9418 9.9381C26.1365 7.88242 26.624 5.54618 28.1838 3.98627C29.266 2.90416 30.7213 2.33843 32.1983 2.3617L29.8536 4.70653L31.0071 9.01131L35.3119 10.1649L37.6566 7.82011C37.6803 9.29671 37.1142 10.7525 36.0321 11.8346C34.4722 13.3944 32.136 13.882 30.0803 13.0766L29.3667 12.7971L21.9102 20.2537L19.7647 18.1082L27.2213 10.6517ZM13.5167 28.6473L13.8226 29.3734C14.7695 31.6202 14.2674 34.1859 12.5436 35.9097C11.3807 37.0726 9.85369 37.6539 8.32618 37.6538C6.79906 37.6537 5.2714 37.0724 4.10878 35.9097C2.98232 34.7832 2.36185 33.2855 2.36185 31.6923C2.36185 30.0992 2.98224 28.6015 4.10878 27.4749C5.2543 26.3295 6.77103 25.7236 8.31939 25.7236C9.10118 25.7236 9.89125 25.8782 10.6451 26.1959L11.3711 26.5018L18.1083 19.7647L20.2537 21.9102L13.5167 28.6473ZM28.9009 25.2258L31.0465 27.3714L27.3715 31.0464L25.226 28.9009L28.9009 25.2258ZM36.8955 36.8955C36.4047 37.3863 35.7521 37.6566 35.058 37.6566C34.3639 37.6566 33.7112 37.3863 33.2205 36.8955L29.0279 32.7029L32.7029 29.0279L36.8955 33.2205C37.9087 34.2336 37.9087 35.8823 36.8955 36.8955Z" fill="black"/>
<path d="M8.32618 27.8328C7.29522 27.8328 6.32594 28.2343 5.59701 28.9633C4.86801 29.6923 4.46649 30.6615 4.46649 31.6925C4.46649 32.7234 4.86801 33.6926 5.59694 34.4216C6.32594 35.1506 7.29522 35.5521 8.32618 35.5521C9.35714 35.5521 10.3263 35.1506 11.0554 34.4216C12.5602 32.9168 12.5602 30.4681 11.0554 28.9633C10.3264 28.2343 9.35714 27.8328 8.32618 27.8328ZM9.399 32.7652C9.11242 33.0517 8.73144 33.2095 8.32626 33.2095C7.92099 33.2095 7.54009 33.0517 7.25352 32.7652C6.96702 32.4786 6.80921 32.0976 6.80921 31.6925C6.80921 31.2873 6.96702 30.9063 7.2536 30.6197C7.54009 30.3331 7.92107 30.1754 8.32634 30.1754C8.73152 30.1754 9.1125 30.3332 9.39908 30.6197C9.99042 31.2112 9.99042 32.1737 9.399 32.7652Z" fill="black"/>
</svg>
