<svg width="34" height="32" viewBox="0 0 34 32" fill="none" xmlns="http://www.w3.org/2000/svg">
<path fill-rule="evenodd" clip-rule="evenodd" d="M24.5524 7.87097C24.1288 6.45114 23.5826 5.21356 22.9384 4.16384C21.3259 1.53597 19.0252 0 16.5161 0C14.0071 0 11.7063 1.53597 10.0938 4.16384C9.44963 5.21356 8.90348 6.45114 8.4799 7.87097H1.93548L0.207004 29.4194L0 32H2.58893H30.4434H33.0323L32.8253 29.4194L31.0968 7.87097H24.5524ZM22.5262 10.4516C22.8067 11.9138 22.9677 13.5892 22.9677 15.4839H25.5484C25.5484 13.6523 25.4084 11.9733 25.1486 10.4516H28.7148L30.2363 29.4194H2.79594L4.31742 10.4516H7.88363C7.62386 11.9733 7.48387 13.6523 7.48387 15.4839H10.0645C10.0645 13.5892 10.2255 11.9138 10.5061 10.4516H22.5262ZM21.8399 7.87097C21.5206 6.96427 21.1475 6.17941 20.739 5.51357C19.4483 3.41026 17.8781 2.58065 16.5161 2.58065C15.1542 2.58065 13.584 3.41026 12.2933 5.51357C11.8847 6.17941 11.5116 6.96427 11.1924 7.87097H21.8399Z" fill="black"/>
</svg>
