<svg width="100" height="100" viewBox="0 0 100 100" fill="none" xmlns="http://www.w3.org/2000/svg">
<path d="M50.005 0C22.3899 0 0.00319862 22.3832 0.00319862 49.9911C0.00319862 77.6133 22.3899 100 50.005 100C77.62 100 99.9996 77.6097 99.9996 49.9911C99.9996 22.3832 77.62 0 50.005 0ZM50.005 94.8789C25.2115 94.8789 5.12425 74.781 5.12425 49.9875C5.12425 25.2047 25.2115 5.1139 50.005 5.1139C74.7913 5.1139 94.8821 25.2047 94.8821 49.9875C94.8786 74.781 74.7877 94.8789 50.005 94.8789Z" fill="black"/>
<path d="M70.9766 31L40.88 61.0966L29.0234 49.2399L25 53.2633L40.88 69.1433L75 35.0234L70.9766 31Z" fill="black"/>
</svg>
