<svg width="24" height="24" viewBox="0 0 24 24" fill="none" xmlns="http://www.w3.org/2000/svg">
<path fill-rule="evenodd" clip-rule="evenodd" d="M24 0H0V24H24V0ZM15.536 5.896C14.3946 5.29867 13.0987 5 11.648 5C10.144 5 8.81067 5.31467 7.648 5.944C6.496 6.57333 5.6 7.44267 4.96 8.552C4.32 9.65067 4 10.8933 4 12.28C4 13.688 4.31467 14.9467 4.944 16.056C5.584 17.1653 6.47467 18.0347 7.616 18.664C8.768 19.2933 10.0907 19.608 11.584 19.608C12.2027 19.608 12.8267 19.544 13.456 19.416C14.096 19.288 14.6506 19.1013 15.12 18.856L14.688 17.576C14.2186 17.8107 13.712 17.9867 13.168 18.104C12.6347 18.2213 12.1067 18.28 11.584 18.28C10.3787 18.28 9.312 18.024 8.384 17.512C7.456 17.0107 6.736 16.3067 6.224 15.4C5.72267 14.4933 5.472 13.4533 5.472 12.28C5.472 11.128 5.728 10.0987 6.24 9.192C6.752 8.28533 7.47734 7.58133 8.416 7.08C9.35467 6.568 10.432 6.312 11.648 6.312C12.8533 6.312 13.92 6.552 14.848 7.032C15.776 7.512 16.496 8.184 17.008 9.048C17.5306 9.912 17.792 10.9093 17.792 12.04C17.792 12.9787 17.6746 13.6987 17.44 14.2C17.216 14.6907 16.8853 14.936 16.448 14.936C16.2026 14.936 16 14.8507 15.84 14.68C15.6906 14.5093 15.616 14.232 15.616 13.848V8.408H13.84V9.448C13.5307 9.07467 13.1467 8.792 12.688 8.6C12.24 8.408 11.7333 8.312 11.168 8.312C10.4427 8.312 9.78667 8.488 9.2 8.84C8.61334 9.18133 8.15467 9.66133 7.824 10.28C7.49334 10.888 7.328 11.5813 7.328 12.36C7.328 13.1493 7.49334 13.8533 7.824 14.472C8.15467 15.0907 8.61334 15.576 9.2 15.928C9.78667 16.2693 10.4427 16.44 11.168 16.44C12.448 16.44 13.408 15.976 14.048 15.048C14.1866 15.496 14.432 15.8427 14.784 16.088C15.136 16.3227 15.568 16.44 16.08 16.44C17.04 16.44 17.792 16.0507 18.336 15.272C18.88 14.4827 19.152 13.3947 19.152 12.008C19.152 10.664 18.832 9.45867 18.192 8.392C17.5626 7.32533 16.6773 6.49333 15.536 5.896ZM13.2 14.216C12.7627 14.664 12.1973 14.888 11.504 14.888C10.8 14.888 10.2293 14.6587 9.792 14.2C9.35467 13.7413 9.136 13.128 9.136 12.36C9.136 11.6027 9.35467 11 9.792 10.552C10.2293 10.0933 10.8 9.864 11.504 9.864C12.1973 9.864 12.7627 10.088 13.2 10.536C13.648 10.984 13.872 11.592 13.872 12.36C13.872 13.1387 13.648 13.7573 13.2 14.216Z" fill="#A4A4A4"/>
</svg>
