<svg width="100" height="100" viewBox="0 0 100 100" fill="none" xmlns="http://www.w3.org/2000/svg">
<path d="M50.005 0C22.3899 0 0.00320435 22.3832 0.00320435 49.9911C0.00320435 77.6133 22.3899 100 50.005 100C77.6201 100 99.9996 77.6097 99.9996 49.9911C99.9996 22.3832 77.6201 0 50.005 0ZM50.005 94.8789C25.2115 94.8789 5.12426 74.781 5.12426 49.9875C5.12426 25.2047 25.2115 5.1139 50.005 5.1139C74.7913 5.1139 94.8822 25.2047 94.8822 49.9875C94.8786 74.781 74.7877 94.8789 50.005 94.8789Z" fill="black"/>
<path d="M55.713 61.3596L57.9016 16.3752H42.213L44.3944 61.3596H55.713Z" fill="black"/>
<path d="M50.0591 66.3234C44.7985 66.3234 41.1187 70.0033 41.1187 75.3568C41.1187 80.5172 44.6912 84.3973 49.8588 84.3973H50.0591C55.4197 84.3973 58.8886 80.5172 58.8886 75.3568C58.7956 70.0033 55.316 66.3234 50.0591 66.3234Z" fill="black"/>
</svg>
