<svg width="24" height="24" viewBox="0 0 24 24" fill="none" xmlns="http://www.w3.org/2000/svg">
<g clip-path="url(#clip0)">
<path d="M23.2799 1.44623e-08H0.720408C0.378048 1.44623e-08 0.377939 -8.06549e-09 0.100586 1.44623e-08V24C0.377939 24 0.378048 24 0.720408 24H8.21987C8.52754 24 8.59841 24 8.8296 24C8.86036 23.1666 8.83864 21.8119 8.83864 21.0062C8.23462 21.0344 7.65798 21.1107 7.08784 21.0778C5.83037 21.0054 4.86409 20.4689 4.36295 19.2375C4.06609 18.5081 3.61878 17.8842 2.92215 17.4678C2.79206 17.39 2.67832 17.2754 2.57878 17.1591C2.44868 17.0073 2.47302 16.8514 2.67857 16.8097C2.88594 16.7676 3.11249 16.7381 3.31698 16.7763C4.12013 16.9271 4.67552 17.4308 5.10065 18.1008C5.94128 19.4262 7.23521 19.832 8.69097 19.2199C8.77214 19.1857 8.87531 19.103 8.89061 19.0275C9.00798 18.4408 9.22726 17.9058 9.66917 17.4368C9.17787 17.3458 8.72279 17.2788 8.27649 17.1753C6.99134 16.878 5.83683 16.343 4.99257 15.2804C4.30376 14.4137 3.98878 13.3991 3.84398 12.3192C3.61722 10.6279 3.82019 9.04467 4.98172 7.69306C5.0404 7.62478 5.07222 7.48489 5.04611 7.39984C4.75521 6.44932 4.79966 5.50678 5.08798 4.56687C5.23928 4.07325 5.2814 4.04866 5.78512 4.11744C5.81592 4.12158 5.84588 4.12932 5.87642 4.13451C6.88614 4.30157 7.75524 4.7905 8.61137 5.31543C8.72646 5.38603 8.90176 5.42997 9.02822 5.39921C11.073 4.90302 13.114 4.90509 15.1585 5.40103C15.2772 5.42972 15.4358 5.38886 15.5492 5.32941C16.0147 5.08609 16.4602 4.80322 16.9316 4.57253C17.48 4.3044 18.0577 4.1027 18.6796 4.11381C18.7884 4.11588 18.9568 4.21982 18.9932 4.31602C19.3674 5.3074 19.4463 6.31767 19.1481 7.34939C19.1163 7.45954 19.1636 7.6165 19.2228 7.72509C19.5171 8.26501 19.928 8.76328 20.1142 9.33599C20.6818 11.0816 20.4749 12.8102 19.7023 14.4509C18.9943 15.9548 17.6812 16.7168 16.1269 17.1099C15.602 17.2425 15.0642 17.3232 14.4979 17.4344C15.24 18.2096 15.3564 19.1557 15.3432 20.1466C15.3295 21.1687 15.3331 22.9776 15.3326 24C15.5905 24 15.5433 23.9983 15.9257 23.9983C15.9255 23.9999 23.8995 23.9999 23.8995 23.9999V1.44623e-08C23.622 -1.80778e-08 23.622 1.44623e-08 23.2799 1.44623e-08Z" fill="#A4A4A4"/>
</g>
<defs>
<clipPath id="clip0">
<rect width="24" height="24" fill="white"/>
</clipPath>
</defs>
</svg>
