<svg width="32" height="32" viewBox="0 0 32 32" fill="none" xmlns="http://www.w3.org/2000/svg">
<path fill-rule="evenodd" clip-rule="evenodd" d="M32 16L17.7677 1.76776L16 0L14.2323 1.76776L0 16V29.5V32H2.5H29.5H32V29.5V16ZM29.5 29.5H2.5V18.5L7.85724 23.8573L8 24L9.625 25.625L16 19.25L22.375 25.625L24 24L24.1427 23.8573L29.5 18.5V29.5ZM28.4645 16L22.375 22.0895L16.0177 15.7323L16 15.75L15.9823 15.7323L9.625 22.0895L3.53553 16L11.0882 8.44734C12.6714 9.71491 14.2501 10.5135 15.9694 10.5234C17.6929 10.5334 19.2916 9.74967 20.912 8.44757L28.4645 16ZM19.1319 6.66742C17.8346 7.6672 16.8464 8.02845 15.9838 8.02346C15.1193 8.01846 14.142 7.64455 12.8687 6.66681L16 3.53552L19.1319 6.66742Z" fill="black"/>
</svg>
