<svg width="32" height="32" viewBox="0 0 32 32" fill="none" xmlns="http://www.w3.org/2000/svg">
<path fill-rule="evenodd" clip-rule="evenodd" d="M18.0991 12.862C18.0991 15.5473 15.9223 17.7241 13.237 17.7241C10.5518 17.7241 8.375 15.5473 8.375 12.862C8.375 10.1768 10.5518 8 13.237 8C15.9223 8 18.0991 10.1768 18.0991 12.862ZM17.0408 19.1666C15.9306 19.8379 14.629 20.2241 13.237 20.2241C9.17111 20.2241 5.875 16.928 5.875 12.862C5.875 8.79611 9.17111 5.5 13.237 5.5C17.303 5.5 20.5991 8.79611 20.5991 12.862C20.5991 14.6315 19.9749 16.2553 18.9345 17.5249L26.25 24.8404L24.4823 26.6081L17.0408 19.1666Z" fill="black"/>
</svg>
