<svg width="100" height="100" viewBox="0 0 100 100" fill="none" xmlns="http://www.w3.org/2000/svg">
<g clip-path="url(#clip0)">
<mask id="path-1-inside-1" fill="white">
<path d="M86.126 15.3882C76.6878 5.53664 63.6288 -0.0231266 49.9856 0.00197673C22.4141 -0.0327496 0.0347201 22.2902 -6.19454e-06 49.8618C-0.0171601 63.495 5.54198 76.5421 15.3863 85.9736C15.4149 86.0021 15.4256 86.0449 15.454 86.07C15.7431 86.3485 16.0573 86.5842 16.3502 86.852C17.1535 87.566 17.9568 88.3051 18.803 88.9942C19.2564 89.3513 19.7277 89.7081 20.1919 90.0366C20.9916 90.6328 21.7914 91.229 22.6267 91.779C23.1944 92.1361 23.78 92.4929 24.3617 92.85C25.1328 93.3142 25.9006 93.7818 26.6968 94.2067C27.3716 94.5638 28.0605 94.8706 28.746 95.1955C29.4958 95.5526 30.2349 95.9095 31.0024 96.2308C31.7699 96.5522 32.5412 96.8021 33.3194 97.0806C34.0977 97.359 34.769 97.6161 35.5152 97.8446C36.3578 98.0981 37.2218 98.2943 38.0786 98.505C38.7926 98.6799 39.4852 98.8799 40.2208 99.0227C41.2061 99.2192 42.2058 99.3441 43.2056 99.4798C43.8233 99.5656 44.4266 99.6869 45.0513 99.7476C46.6866 99.9083 48.3359 99.9976 49.9996 99.9976C51.6633 99.9976 53.3128 99.9083 54.9479 99.7476C55.5727 99.6869 56.176 99.5656 56.7936 99.4798C57.7933 99.3441 58.7929 99.2192 59.7784 99.0227C60.4924 98.8799 61.2065 98.6656 61.9205 98.505C62.7774 98.2943 63.6414 98.0979 64.484 97.8446C65.2302 97.6161 65.9513 97.3377 66.6797 97.0806C67.4081 96.8235 68.2363 96.545 68.9967 96.2308C69.7572 95.9166 70.5034 95.5489 71.2531 95.1955C71.9386 94.8706 72.6277 94.5636 73.3024 94.2067C74.0986 93.7818 74.8661 93.314 75.6374 92.85C76.2194 92.4929 76.8049 92.1681 77.3725 91.779C78.208 91.2292 79.0077 90.633 79.8073 90.0366C80.2715 89.6795 80.7426 89.3582 81.1961 88.9942C82.0423 88.3158 82.8456 87.5947 83.6489 86.852C83.9416 86.5842 84.2558 86.3487 84.5451 86.07C84.5736 86.0452 84.5845 86.0023 84.6129 85.9736C104.523 66.8997 105.2 35.2975 86.126 15.3882ZM78.1015 82.2355C77.4518 82.8068 76.7804 83.3495 76.1022 83.8743C75.7025 84.1814 75.3025 84.4848 74.8918 84.7776C74.2456 85.2454 73.5888 85.6881 72.921 86.1129C72.4355 86.4236 71.9393 86.7234 71.4393 87.0162C70.8109 87.3733 70.1718 87.7302 69.5256 88.0873C68.9543 88.38 68.3723 88.6551 67.787 88.9264C67.2016 89.1977 66.5552 89.4868 65.9233 89.7404C65.2913 89.9939 64.6202 90.233 63.9595 90.4543C63.3562 90.6614 62.7529 90.8757 62.1423 91.0577C61.4283 91.2719 60.6821 91.4468 59.943 91.6254C59.3646 91.761 58.7935 91.9145 58.2079 92.029C57.3618 92.1932 56.4978 92.3074 55.6303 92.4252C55.1376 92.4894 54.6485 92.5787 54.1521 92.6287C52.781 92.7607 51.3922 92.8394 49.9891 92.8394C48.5861 92.8394 47.1972 92.7609 45.8261 92.6287C45.3299 92.5787 44.8408 92.4894 44.348 92.4252C43.4804 92.3074 42.6165 92.1932 41.7703 92.029C41.1847 91.9147 40.6134 91.7612 40.0352 91.6254C39.2961 91.447 38.5606 91.2683 37.836 91.0577C37.2255 90.8757 36.622 90.6614 36.0187 90.4543C35.3583 90.2259 34.6976 89.9937 34.055 89.7404C33.4123 89.4868 32.8055 89.2084 32.1913 88.9264C31.5771 88.6444 31.0237 88.3802 30.4526 88.0873C29.8064 87.7518 29.1674 87.3982 28.5389 87.0162C28.0392 86.7236 27.5428 86.4236 27.0572 86.1129C26.3897 85.6881 25.7326 85.2454 25.0864 84.7776C24.6757 84.485 24.276 84.1814 23.876 83.8743C23.1976 83.3495 22.5265 82.8033 21.8767 82.2355C21.7196 82.1177 21.5767 81.9677 21.4234 81.832C21.583 69.6868 29.3853 58.9626 40.8921 55.0729C46.6456 57.8097 53.3256 57.8097 59.079 55.0729C70.5856 58.9626 78.3879 69.6866 78.5477 81.832C78.3977 81.9677 78.2549 82.1035 78.1015 82.2355ZM37.5358 28.6277C41.4015 21.7528 50.1084 19.3134 56.9833 23.1791C63.8583 27.0448 66.2977 35.7516 62.432 42.6266C61.1494 44.9077 59.2646 46.7925 56.9833 48.0753C56.9655 48.0753 56.944 48.0753 56.9227 48.0966C55.9758 48.6236 54.9753 49.0474 53.9379 49.3606C53.7523 49.4141 53.5808 49.4855 53.3846 49.5319C53.0275 49.6248 52.6526 49.689 52.2848 49.7532C51.5924 49.8744 50.8918 49.9447 50.1891 49.9639H49.782C49.0793 49.9447 48.3787 49.8744 47.6863 49.7532C47.3292 49.689 46.9508 49.6248 46.5868 49.5319C46.3975 49.4855 46.2297 49.4141 46.0335 49.3606C44.9961 49.0474 43.9955 48.6238 43.0487 48.0966L42.9844 48.0753C36.1095 44.2096 33.6701 35.5027 37.5358 28.6277ZM84.8813 74.7524C82.5902 64.0661 75.5533 55.0065 65.7661 50.1428C73.7668 41.4275 73.1873 27.8765 64.4721 19.8759C55.7568 11.8752 42.2058 12.4547 34.2052 21.17C26.6838 29.3633 26.6838 41.9497 34.2052 50.1428C24.418 55.0067 17.3811 64.0661 15.09 74.7524C1.39951 55.4682 5.93401 28.7369 25.2182 15.0464C44.5024 1.35588 71.2337 5.89038 84.9242 25.1746C90.0706 32.4238 92.8332 41.0951 92.8288 49.9855C92.8288 58.8681 90.0499 67.5281 84.8813 74.7524Z"/>
</mask>
<path d="M86.126 15.3882C76.6878 5.53664 63.6288 -0.0231266 49.9856 0.00197673C22.4141 -0.0327496 0.0347201 22.2902 -6.19454e-06 49.8618C-0.0171601 63.495 5.54198 76.5421 15.3863 85.9736C15.4149 86.0021 15.4256 86.0449 15.454 86.07C15.7431 86.3485 16.0573 86.5842 16.3502 86.852C17.1535 87.566 17.9568 88.3051 18.803 88.9942C19.2564 89.3513 19.7277 89.7081 20.1919 90.0366C20.9916 90.6328 21.7914 91.229 22.6267 91.779C23.1944 92.1361 23.78 92.4929 24.3617 92.85C25.1328 93.3142 25.9006 93.7818 26.6968 94.2067C27.3716 94.5638 28.0605 94.8706 28.746 95.1955C29.4958 95.5526 30.2349 95.9095 31.0024 96.2308C31.7699 96.5522 32.5412 96.8021 33.3194 97.0806C34.0977 97.359 34.769 97.6161 35.5152 97.8446C36.3578 98.0981 37.2218 98.2943 38.0786 98.505C38.7926 98.6799 39.4852 98.8799 40.2208 99.0227C41.2061 99.2192 42.2058 99.3441 43.2056 99.4798C43.8233 99.5656 44.4266 99.6869 45.0513 99.7476C46.6866 99.9083 48.3359 99.9976 49.9996 99.9976C51.6633 99.9976 53.3128 99.9083 54.9479 99.7476C55.5727 99.6869 56.176 99.5656 56.7936 99.4798C57.7933 99.3441 58.7929 99.2192 59.7784 99.0227C60.4924 98.8799 61.2065 98.6656 61.9205 98.505C62.7774 98.2943 63.6414 98.0979 64.484 97.8446C65.2302 97.6161 65.9513 97.3377 66.6797 97.0806C67.4081 96.8235 68.2363 96.545 68.9967 96.2308C69.7572 95.9166 70.5034 95.5489 71.2531 95.1955C71.9386 94.8706 72.6277 94.5636 73.3024 94.2067C74.0986 93.7818 74.8661 93.314 75.6374 92.85C76.2194 92.4929 76.8049 92.1681 77.3725 91.779C78.208 91.2292 79.0077 90.633 79.8073 90.0366C80.2715 89.6795 80.7426 89.3582 81.1961 88.9942C82.0423 88.3158 82.8456 87.5947 83.6489 86.852C83.9416 86.5842 84.2558 86.3487 84.5451 86.07C84.5736 86.0452 84.5845 86.0023 84.6129 85.9736C104.523 66.8997 105.2 35.2975 86.126 15.3882ZM78.1015 82.2355C77.4518 82.8068 76.7804 83.3495 76.1022 83.8743C75.7025 84.1814 75.3025 84.4848 74.8918 84.7776C74.2456 85.2454 73.5888 85.6881 72.921 86.1129C72.4355 86.4236 71.9393 86.7234 71.4393 87.0162C70.8109 87.3733 70.1718 87.7302 69.5256 88.0873C68.9543 88.38 68.3723 88.6551 67.787 88.9264C67.2016 89.1977 66.5552 89.4868 65.9233 89.7404C65.2913 89.9939 64.6202 90.233 63.9595 90.4543C63.3562 90.6614 62.7529 90.8757 62.1423 91.0577C61.4283 91.2719 60.6821 91.4468 59.943 91.6254C59.3646 91.761 58.7935 91.9145 58.2079 92.029C57.3618 92.1932 56.4978 92.3074 55.6303 92.4252C55.1376 92.4894 54.6485 92.5787 54.1521 92.6287C52.781 92.7607 51.3922 92.8394 49.9891 92.8394C48.5861 92.8394 47.1972 92.7609 45.8261 92.6287C45.3299 92.5787 44.8408 92.4894 44.348 92.4252C43.4804 92.3074 42.6165 92.1932 41.7703 92.029C41.1847 91.9147 40.6134 91.7612 40.0352 91.6254C39.2961 91.447 38.5606 91.2683 37.836 91.0577C37.2255 90.8757 36.622 90.6614 36.0187 90.4543C35.3583 90.2259 34.6976 89.9937 34.055 89.7404C33.4123 89.4868 32.8055 89.2084 32.1913 88.9264C31.5771 88.6444 31.0237 88.3802 30.4526 88.0873C29.8064 87.7518 29.1674 87.3982 28.5389 87.0162C28.0392 86.7236 27.5428 86.4236 27.0572 86.1129C26.3897 85.6881 25.7326 85.2454 25.0864 84.7776C24.6757 84.485 24.276 84.1814 23.876 83.8743C23.1976 83.3495 22.5265 82.8033 21.8767 82.2355C21.7196 82.1177 21.5767 81.9677 21.4234 81.832C21.583 69.6868 29.3853 58.9626 40.8921 55.0729C46.6456 57.8097 53.3256 57.8097 59.079 55.0729C70.5856 58.9626 78.3879 69.6866 78.5477 81.832C78.3977 81.9677 78.2549 82.1035 78.1015 82.2355ZM37.5358 28.6277C41.4015 21.7528 50.1084 19.3134 56.9833 23.1791C63.8583 27.0448 66.2977 35.7516 62.432 42.6266C61.1494 44.9077 59.2646 46.7925 56.9833 48.0753C56.9655 48.0753 56.944 48.0753 56.9227 48.0966C55.9758 48.6236 54.9753 49.0474 53.9379 49.3606C53.7523 49.4141 53.5808 49.4855 53.3846 49.5319C53.0275 49.6248 52.6526 49.689 52.2848 49.7532C51.5924 49.8744 50.8918 49.9447 50.1891 49.9639H49.782C49.0793 49.9447 48.3787 49.8744 47.6863 49.7532C47.3292 49.689 46.9508 49.6248 46.5868 49.5319C46.3975 49.4855 46.2297 49.4141 46.0335 49.3606C44.9961 49.0474 43.9955 48.6238 43.0487 48.0966L42.9844 48.0753C36.1095 44.2096 33.6701 35.5027 37.5358 28.6277ZM84.8813 74.7524C82.5902 64.0661 75.5533 55.0065 65.7661 50.1428C73.7668 41.4275 73.1873 27.8765 64.4721 19.8759C55.7568 11.8752 42.2058 12.4547 34.2052 21.17C26.6838 29.3633 26.6838 41.9497 34.2052 50.1428C24.418 55.0067 17.3811 64.0661 15.09 74.7524C1.39951 55.4682 5.93401 28.7369 25.2182 15.0464C44.5024 1.35588 71.2337 5.89038 84.9242 25.1746C90.0706 32.4238 92.8332 41.0951 92.8288 49.9855C92.8288 58.8681 90.0499 67.5281 84.8813 74.7524Z" fill="black"/>
<path d="M86.126 15.3882L85.4039 16.08L85.4039 16.08L86.126 15.3882ZM49.9856 0.00197673L49.9843 1.00198L49.9874 1.00198L49.9856 0.00197673ZM-6.19454e-06 49.8618L-1.00001 49.8606L-1.00001 49.8606L-6.19454e-06 49.8618ZM15.3863 85.9736L16.0908 85.2639L16.0845 85.2577L16.0781 85.2515L15.3863 85.9736ZM15.454 86.07L16.1477 85.3498L16.132 85.3346L16.1157 85.3202L15.454 86.07ZM16.3502 86.852L15.6754 87.5901L15.6859 87.5995L16.3502 86.852ZM18.803 88.9942L18.1716 89.7696L18.1779 89.7747L18.1842 89.7797L18.803 88.9942ZM20.1919 90.0366L20.7896 89.2349L20.7796 89.2274L20.7694 89.2202L20.1919 90.0366ZM22.6267 91.779L22.0768 92.6142L22.0855 92.6199L22.0943 92.6254L22.6267 91.779ZM24.3617 92.85L23.8386 93.7023L23.846 93.7068L24.3617 92.85ZM26.6968 94.2067L26.226 95.0889L26.2291 95.0906L26.6968 94.2067ZM28.746 95.1955L29.176 94.2927L29.1743 94.2919L28.746 95.1955ZM35.5152 97.8446L35.2224 98.8008L35.227 98.8021L35.5152 97.8446ZM38.0786 98.505L37.8399 99.4761L37.8407 99.4763L38.0786 98.505ZM40.2208 99.0227L40.4163 98.042L40.4115 98.0411L40.2208 99.0227ZM43.2056 99.4798L43.3431 98.4893L43.3401 98.4889L43.2056 99.4798ZM45.0513 99.7476L45.1491 98.7524L45.148 98.7523L45.0513 99.7476ZM54.9479 99.7476L54.8512 98.7523L54.8501 98.7524L54.9479 99.7476ZM56.7936 99.4798L56.659 98.4889L56.656 98.4893L56.7936 99.4798ZM59.7784 99.0227L59.9739 100.003L59.9746 100.003L59.7784 99.0227ZM61.9205 98.505L62.1401 99.4806L62.1497 99.4784L62.1593 99.4761L61.9205 98.505ZM64.484 97.8446L64.7719 98.8022L64.7767 98.8008L64.484 97.8446ZM71.2531 95.1955L71.6794 96.1001L71.6814 96.0992L71.2531 95.1955ZM73.3024 94.2067L73.77 95.0906L73.7732 95.0889L73.3024 94.2067ZM75.6374 92.85L76.1529 93.707L76.1604 93.7024L75.6374 92.85ZM77.3725 91.779L76.8228 90.9436L76.8149 90.9488L76.807 90.9542L77.3725 91.779ZM79.8073 90.0366L80.4052 90.8381L80.4111 90.8337L80.417 90.8292L79.8073 90.0366ZM81.1961 88.9942L80.5706 88.214L80.5702 88.2143L81.1961 88.9942ZM83.6489 86.852L82.9739 86.1142L82.9701 86.1177L83.6489 86.852ZM84.5451 86.07L83.8866 85.3175L83.8686 85.3332L83.8514 85.3498L84.5451 86.07ZM84.6129 85.9736L83.9211 85.2515L83.9121 85.2602L83.9032 85.2691L84.6129 85.9736ZM78.1015 82.2355L77.4491 81.4776L77.4412 81.4845L78.1015 82.2355ZM76.1022 83.8743L76.7114 84.6674L76.7143 84.6652L76.1022 83.8743ZM74.8918 84.7776L74.3112 83.9635L74.3055 83.9676L74.8918 84.7776ZM72.921 86.1129L72.3842 85.2692L72.3821 85.2706L72.921 86.1129ZM71.4393 87.0162L71.9334 87.8857L71.9447 87.8791L71.4393 87.0162ZM69.5256 88.0873L69.9815 88.9773L69.9955 88.9702L70.0093 88.9626L69.5256 88.0873ZM63.9595 90.4543L63.6419 89.5061L63.6349 89.5085L63.9595 90.4543ZM62.1423 91.0577L61.8566 90.0993L61.8549 90.0998L62.1423 91.0577ZM59.943 91.6254L60.1712 92.5991L60.178 92.5974L59.943 91.6254ZM58.2079 92.029L58.3985 93.0106L58.3997 93.0104L58.2079 92.029ZM55.6303 92.4252L55.7595 93.4168L55.7648 93.4161L55.6303 92.4252ZM54.1521 92.6287L54.2479 93.6241L54.2523 93.6237L54.1521 92.6287ZM45.8261 92.6287L45.7259 93.6237L45.7302 93.6241L45.8261 92.6287ZM44.348 92.4252L44.2134 93.4161L44.2188 93.4168L44.348 92.4252ZM41.7703 92.029L41.5788 93.0105L41.5798 93.0106L41.7703 92.029ZM40.0352 91.6254L39.8005 92.5975L39.8066 92.5989L40.0352 91.6254ZM37.836 91.0577L37.5502 92.016L37.5568 92.0179L37.836 91.0577ZM36.0187 90.4543L35.6918 91.3994L35.694 91.4002L36.0187 90.4543ZM34.055 89.7404L33.688 90.6706L33.6882 90.6707L34.055 89.7404ZM32.1913 88.9264L31.774 89.8352L32.1913 88.9264ZM30.4526 88.0873L29.9918 88.9748L29.9963 88.9771L30.4526 88.0873ZM28.5389 87.0162L29.0584 86.1617L29.0513 86.1575L29.0443 86.1533L28.5389 87.0162ZM27.0572 86.1129L27.5962 85.2706L27.5942 85.2693L27.0572 86.1129ZM25.0864 84.7776L25.6728 83.9676L25.6668 83.9633L25.0864 84.7776ZM23.876 83.8743L23.2641 84.6653L23.267 84.6675L23.876 83.8743ZM21.8767 82.2355L22.5347 81.4825L22.5065 81.4578L22.4765 81.4354L21.8767 82.2355ZM21.4234 81.832L20.4235 81.8188L20.4175 82.277L20.7605 82.5807L21.4234 81.832ZM40.8921 55.0729L41.3217 54.1698L40.9557 53.9958L40.5718 54.1255L40.8921 55.0729ZM59.079 55.0729L59.3993 54.1255L59.0154 53.9957L58.6495 54.1698L59.079 55.0729ZM78.5477 81.832L79.2188 82.5734L79.5536 82.2703L79.5476 81.8188L78.5477 81.832ZM62.432 42.6266L61.5604 42.1365L61.5603 42.1365L62.432 42.6266ZM56.9833 48.0753V49.0753H57.2452L57.4735 48.9469L56.9833 48.0753ZM56.9227 48.0966L57.409 48.9704L57.531 48.9025L57.6298 48.8037L56.9227 48.0966ZM53.9379 49.3606L54.2152 50.3214L54.2269 50.3179L53.9379 49.3606ZM53.3846 49.5319L53.1542 48.5588L53.1435 48.5613L53.1328 48.5641L53.3846 49.5319ZM52.2848 49.7532L52.1128 48.7682L52.1125 48.7682L52.2848 49.7532ZM50.1891 49.9639V50.9639H50.2028L50.2165 50.9635L50.1891 49.9639ZM49.782 49.9639L49.7546 50.9635L49.7683 50.9639H49.782V49.9639ZM47.6863 49.7532L47.5093 50.7375L47.514 50.7383L47.6863 49.7532ZM46.5868 49.5319L46.834 48.5629L46.825 48.5607L46.5868 49.5319ZM46.0335 49.3606L45.7445 50.3179L45.7573 50.3218L45.7702 50.3253L46.0335 49.3606ZM43.0487 48.0966L43.5351 47.2229L43.4531 47.1772L43.3639 47.1476L43.0487 48.0966ZM42.9844 48.0753L42.4943 48.947L42.578 48.994L42.6692 49.0243L42.9844 48.0753ZM84.8813 74.7524L83.9035 74.962L84.3779 77.1747L85.6946 75.3343L84.8813 74.7524ZM65.7661 50.1428L65.0295 49.4665L64.13 50.4463L65.3211 51.0383L65.7661 50.1428ZM34.2052 21.17L33.4685 20.4937L33.4685 20.4937L34.2052 21.17ZM34.2052 50.1428L34.6502 51.0383L35.8413 50.4463L34.9418 49.4665L34.2052 50.1428ZM15.09 74.7524L14.2746 75.3313L15.5911 77.1856L16.0678 74.962L15.09 74.7524ZM84.9242 25.1746L85.7396 24.5957L85.7396 24.5957L84.9242 25.1746ZM92.8288 49.9855L91.8288 49.985V49.9855H92.8288ZM86.8481 14.6964C77.2208 4.6475 63.9003 -1.02363 49.9837 -0.998022L49.9874 1.00198C63.3574 0.977375 76.1547 6.42577 85.4039 16.08L86.8481 14.6964ZM49.9868 -0.998022C21.8631 -1.03344 -0.964584 21.7366 -1.00001 49.8606L0.999993 49.8631C1.03402 22.8437 22.9652 0.967945 49.9843 1.00198L49.9868 -0.998022ZM-1.00001 49.8606C-1.0175 63.7669 4.65299 77.0752 14.6944 86.6957L16.0781 85.2515C6.43096 76.0089 0.983183 63.2232 0.999993 49.8631L-1.00001 49.8606ZM14.6817 86.6833C14.6226 86.6246 14.5853 86.571 14.5668 86.5426C14.5573 86.528 14.5508 86.5169 14.5482 86.5125C14.5464 86.5094 14.5447 86.5063 14.5489 86.5137C14.5521 86.5194 14.5763 86.5635 14.6091 86.6116C14.6443 86.6631 14.7034 86.7414 14.7924 86.8199L16.1157 85.3202C16.1904 85.3862 16.2376 85.4497 16.2618 85.4852C16.2742 85.5035 16.283 85.5179 16.2874 85.5253C16.2914 85.532 16.2939 85.5366 16.2916 85.5325C16.2909 85.5312 16.2842 85.5193 16.2773 85.5075C16.2698 85.4944 16.258 85.4747 16.2431 85.4517C16.2137 85.4065 16.1642 85.3368 16.0908 85.2639L14.6817 86.6833ZM14.7603 86.7903C14.9314 86.9551 15.105 87.1025 15.2572 87.2304C15.4164 87.3644 15.5483 87.4738 15.6755 87.59L17.025 86.114C16.8593 85.9625 16.6876 85.8201 16.5443 85.6996C16.3938 85.5731 16.2658 85.4635 16.1477 85.3498L14.7603 86.7903ZM15.6859 87.5995C16.472 88.2981 17.3032 89.0624 18.1716 89.7696L19.4345 88.2188C18.6105 87.5477 17.8351 86.8339 17.0145 86.1046L15.6859 87.5995ZM18.1842 89.7797C18.6472 90.1444 19.1326 90.5121 19.6143 90.8529L20.7694 89.2202C20.3228 88.9042 19.8655 88.5581 19.4218 88.2086L18.1842 89.7797ZM19.5942 90.8383C20.3901 91.4316 21.213 92.0455 22.0768 92.6142L23.1766 90.9437C22.3697 90.4125 21.5932 89.8339 20.7896 89.2349L19.5942 90.8383ZM22.0943 92.6254C22.6681 92.9863 23.2607 93.3475 23.8386 93.7023L24.8849 91.9978C24.2993 91.6383 23.7208 91.2858 23.1591 90.9325L22.0943 92.6254ZM23.846 93.7068C24.6089 94.1661 25.4018 94.6491 26.226 95.0889L27.1676 93.3244C26.3993 92.9145 25.6568 92.4624 24.8775 91.9933L23.846 93.7068ZM26.2291 95.0906C26.9299 95.4614 27.6602 95.7876 28.3178 96.0992L29.1743 94.2919C28.4608 93.9537 27.8133 93.6661 27.1645 93.3228L26.2291 95.0906ZM28.316 96.0984C29.0574 96.4514 29.8215 96.8205 30.6162 97.1533L31.3886 95.3084C30.6483 94.9985 29.9342 94.6538 29.176 94.2927L28.316 96.0984ZM30.6162 97.1533C31.4162 97.4882 32.2414 97.7569 32.9826 98.0221L33.6563 96.139C32.8411 95.8473 32.1236 95.6161 31.3886 95.3084L30.6162 97.1533ZM32.9826 98.0221C33.7352 98.2914 34.4466 98.5632 35.2224 98.8008L35.8079 96.8884C35.0913 96.669 34.4601 96.4266 33.6563 96.139L32.9826 98.0221ZM35.227 98.8021C36.102 99.0654 37.0066 99.2712 37.8399 99.4761L38.3174 97.5339C37.437 97.3175 36.6136 97.1308 35.8033 96.887L35.227 98.8021ZM37.8407 99.4763C38.5017 99.6382 39.2645 99.8557 40.0301 100.004L40.4115 98.0411C39.706 97.904 39.0836 97.7216 38.3165 97.5337L37.8407 99.4763ZM40.0253 100.003C41.0488 100.208 42.0877 100.337 43.071 100.471L43.3401 98.4889C42.324 98.3509 41.3633 98.2308 40.4163 98.042L40.0253 100.003ZM43.068 100.47C43.5945 100.543 44.3151 100.681 44.9546 100.743L45.148 98.7523C44.5382 98.6931 44.0521 98.5878 43.3431 98.4893L43.068 100.47ZM44.9535 100.743C46.618 100.906 48.3001 100.998 49.9996 100.998V98.9976C48.3717 98.9976 46.7551 98.9102 45.1491 98.7524L44.9535 100.743ZM49.9996 100.998C51.6991 100.998 53.3814 100.906 55.0457 100.743L54.8501 98.7524C53.2442 98.9102 51.6275 98.9976 49.9996 98.9976V100.998ZM55.0445 100.743C55.6844 100.681 56.4047 100.543 56.9312 100.47L56.656 98.4893C55.9474 98.5878 55.4611 98.6931 54.8512 98.7523L55.0445 100.743ZM56.9282 100.471C57.9115 100.337 58.9501 100.208 59.9739 100.003L59.5829 98.042C58.6356 98.2308 57.6751 98.3509 56.659 98.4889L56.9282 100.471ZM59.9746 100.003C60.3601 99.9262 60.7397 99.831 61.0977 99.7392C61.4633 99.6455 61.8014 99.5568 62.1401 99.4806L61.701 97.5294C61.3257 97.6138 60.9497 97.7125 60.6012 97.8018C60.2451 97.8931 59.9107 97.9764 59.5821 98.0422L59.9746 100.003ZM62.1593 99.4761C62.9929 99.2711 63.8971 99.0652 64.7719 98.8022L64.1961 96.8869C63.3856 97.1306 62.5619 97.3175 61.6818 97.5339L62.1593 99.4761ZM64.7767 98.8008C65.5494 98.5642 66.321 98.2676 67.0125 98.0236L66.3469 96.1376C65.5816 96.4077 64.911 96.668 64.1913 96.8884L64.7767 98.8008ZM67.0125 98.0236C67.7201 97.7738 68.5864 97.4824 69.3786 97.155L68.6149 95.3066C67.8862 95.6077 67.0961 95.8731 66.3469 96.1376L67.0125 98.0236ZM69.3786 97.155C70.1687 96.8286 70.9514 96.4432 71.6794 96.1001L70.8268 94.2909C70.0554 94.6545 69.3456 95.0047 68.6149 95.3066L69.3786 97.155ZM71.6814 96.0992C72.3391 95.7875 73.0694 95.4612 73.77 95.0906L72.8348 93.3227C72.1861 93.6659 71.5382 93.9538 70.8249 94.2919L71.6814 96.0992ZM73.7732 95.0889C74.5973 94.6491 75.3903 94.1657 76.1529 93.7069L75.1219 91.9931C74.3419 92.4624 73.5998 92.9145 72.8316 93.3244L73.7732 95.0889ZM76.1604 93.7024C76.6919 93.3763 77.3442 93.0108 77.9379 92.6037L76.807 90.9542C76.2656 91.3253 75.7469 91.6096 75.1144 91.9977L76.1604 93.7024ZM77.9221 92.6143C78.7863 92.0457 79.6093 91.4318 80.4052 90.8381L79.2094 89.235C78.4062 89.8342 77.6297 90.4127 76.8228 90.9436L77.9221 92.6143ZM80.417 90.8292C80.7944 90.5389 81.3846 90.1251 81.822 89.7741L80.5702 88.2143C80.1006 88.5912 79.7486 88.8201 79.1976 89.244L80.417 90.8292ZM81.8216 89.7744C82.6953 89.0739 83.5188 88.3342 84.3278 87.5863L82.9701 86.1177C82.1725 86.8551 81.3893 87.5576 80.5706 88.214L81.8216 89.7744ZM84.324 87.5898C84.4509 87.4737 84.5825 87.3644 84.7418 87.2306C84.8939 87.1027 85.0676 86.9552 85.2388 86.7903L83.8514 85.3498C83.7333 85.4635 83.6053 85.5731 83.4548 85.6996C83.3115 85.8201 83.1397 85.9626 82.9739 86.1142L84.324 87.5898ZM85.2036 86.8226C85.2932 86.7442 85.3529 86.6659 85.3884 86.6141C85.4217 86.5656 85.4461 86.5215 85.4498 86.5149C85.4602 86.4966 85.4484 86.5181 85.4337 86.5408C85.4161 86.568 85.3799 86.6204 85.3226 86.6781L83.9032 85.2691C83.8317 85.3412 83.7834 85.4097 83.7549 85.4537C83.7404 85.4761 83.7291 85.4953 83.7218 85.5079C83.718 85.5143 83.7149 85.5198 83.7127 85.5236C83.711 85.5267 83.7085 85.5312 83.7082 85.5316C83.7061 85.5354 83.7088 85.5306 83.713 85.5235C83.7175 85.5159 83.7264 85.5013 83.739 85.4829C83.7636 85.4471 83.8112 85.3834 83.8866 85.3175L85.2036 86.8226ZM85.3047 86.6957C105.613 67.2397 106.304 35.0045 86.8481 14.6964L85.4039 16.08C104.096 35.5905 103.432 66.5596 83.9211 85.2515L85.3047 86.6957ZM77.4412 81.4845C76.8117 82.038 76.1576 82.567 75.4902 83.0835L76.7143 84.6652C77.4033 84.1319 78.0918 83.5756 78.7618 82.9865L77.4412 81.4845ZM75.493 83.0813C75.0956 83.3866 74.707 83.6812 74.3112 83.9635L75.4725 85.5918C75.898 85.2883 76.3094 84.9762 76.7114 84.6674L75.493 83.0813ZM74.3055 83.9676C73.6773 84.4223 73.0371 84.8538 72.3842 85.2692L73.4578 86.9566C74.1404 86.5223 74.814 86.0685 75.4782 85.5877L74.3055 83.9676ZM72.3821 85.2706C71.9107 85.5721 71.4263 85.8649 70.9339 86.1534L71.9447 87.8791C72.4522 87.5818 72.9602 87.275 73.46 86.9553L72.3821 85.2706ZM70.9452 86.1468C70.3211 86.5014 69.6856 86.8563 69.0419 87.2121L70.0093 88.9626C70.658 88.6041 71.3006 88.2452 71.9333 87.8857L70.9452 86.1468ZM69.0697 87.1973C68.5162 87.4808 67.9484 87.7494 67.3664 88.0191L68.2075 89.8337C68.7962 89.5608 69.3924 89.2791 69.9815 88.9773L69.0697 87.1973ZM67.3664 88.0191C66.7885 88.287 66.1598 88.568 65.5509 88.8123L66.2956 90.6685C66.9506 90.4057 67.6148 90.1084 68.2075 89.8337L67.3664 88.0191ZM65.5509 88.8123C64.9429 89.0562 64.2914 89.2885 63.6419 89.5061L64.2772 91.4025C64.9489 91.1775 65.6396 90.9316 66.2956 90.6685L65.5509 88.8123ZM63.6349 89.5085C63.0174 89.7205 62.4418 89.9249 61.8566 90.0993L62.4279 92.016C63.064 91.8264 63.695 91.6024 64.2842 91.4002L63.6349 89.5085ZM61.8549 90.0998C61.1733 90.3043 60.4592 90.4718 59.7081 90.6534L60.178 92.5974C60.905 92.4217 61.6832 92.2394 62.4296 92.0155L61.8549 90.0998ZM59.7148 90.6518C59.0929 90.7975 58.579 90.9375 58.0161 91.0475L58.3997 93.0104C59.008 92.8915 59.6362 92.7244 60.1712 92.599L59.7148 90.6518ZM58.0174 91.0473C57.2049 91.205 56.3718 91.3153 55.4957 91.4343L55.7648 93.4161C56.6238 93.2995 57.5186 93.1814 58.3985 93.0106L58.0174 91.0473ZM55.501 91.4336C54.9261 91.5085 54.5438 91.5842 54.0519 91.6337L54.2523 93.6237C54.7532 93.5732 55.3491 93.4703 55.7595 93.4168L55.501 91.4336ZM54.0563 91.6333C52.7114 91.7628 51.355 91.8394 49.9891 91.8394V93.8394C51.4294 93.8394 52.8506 93.7586 54.2479 93.6241L54.0563 91.6333ZM49.9891 91.8394C48.6232 91.8394 47.2668 91.763 45.9221 91.6333L45.7302 93.6241C47.1276 93.7589 48.5489 93.8394 49.9891 93.8394V91.8394ZM45.9264 91.6337C45.4344 91.5842 45.0525 91.5085 44.4772 91.4336L44.2188 93.4168C44.6292 93.4703 45.2254 93.5732 45.7259 93.6237L45.9264 91.6337ZM44.4825 91.4343C43.6065 91.3153 42.7733 91.205 41.9608 91.0473L41.5798 93.0106C42.4596 93.1814 43.3544 93.2995 44.2135 93.4161L44.4825 91.4343ZM41.9617 91.0475C41.3997 90.9378 40.8846 90.7977 40.2638 90.6519L39.8066 92.5989C40.3423 92.7247 40.9698 92.8917 41.5788 93.0105L41.9617 91.0475ZM40.2699 90.6533C39.5284 90.4743 38.8144 90.3007 38.1151 90.0974L37.5568 92.0179C38.3068 92.2359 39.0639 92.4196 39.8005 92.5975L40.2699 90.6533ZM38.1217 90.0993C37.5366 89.9249 36.9607 89.7204 36.3434 89.5085L35.694 91.4002C36.2833 91.6025 36.9144 91.8264 37.5502 92.016L38.1217 90.0993ZM36.3456 89.5093C35.6862 89.2812 35.043 89.0549 34.4217 88.81L33.6882 90.6707C34.3523 90.9325 35.0304 91.1706 35.6918 91.3994L36.3456 89.5093ZM34.422 88.8101C33.8087 88.5682 33.2261 88.3011 32.6085 88.0176L31.774 89.8352C32.3849 90.1156 33.016 90.4054 33.688 90.6706L34.422 88.8101ZM32.6085 88.0176C32.0029 87.7395 31.4634 87.4818 30.909 87.1975L29.9963 88.9771C30.5841 89.2786 31.1512 89.5492 31.774 89.8352L32.6085 88.0176ZM30.9135 87.1998C30.2828 86.8723 29.6638 86.5297 29.0584 86.1617L28.0195 87.8707C28.6709 88.2667 29.3301 88.6312 29.9918 88.9748L30.9135 87.1998ZM29.0443 86.1533C28.5522 85.8651 28.0675 85.5722 27.5962 85.2706L26.5183 86.9553C27.018 87.275 27.5262 87.582 28.0336 87.8792L29.0443 86.1533ZM27.5942 85.2693C26.9413 84.8538 26.3009 84.4223 25.6728 83.9676L24.5 85.5877C25.1643 86.0685 25.8381 86.5224 26.5203 86.9565L27.5942 85.2693ZM25.6668 83.9633C25.2713 83.6815 24.8833 83.3869 24.485 83.0812L23.267 84.6675C23.6687 84.9759 24.0801 85.2885 24.506 85.592L25.6668 83.9633ZM24.4879 83.0834C23.8224 82.5686 23.167 82.035 22.5347 81.4825L21.2187 82.9885C21.8859 83.5715 22.5727 84.1304 23.2641 84.6653L24.4879 83.0834ZM22.4765 81.4354C22.3556 81.3447 22.3342 81.3028 22.0863 81.0833L20.7605 82.5807C20.8192 82.6327 21.0836 82.8908 21.2769 83.0356L22.4765 81.4354ZM22.4233 81.8451C22.5774 70.1239 30.1073 59.7742 41.2123 56.0202L40.5718 54.1255C28.6634 58.1511 20.5887 69.2496 20.4235 81.8188L22.4233 81.8451ZM40.4625 55.9759C46.4878 58.8421 53.4833 58.8421 59.5086 55.9759L58.6495 54.1698C53.1678 56.7774 46.8033 56.7774 41.3217 54.1698L40.4625 55.9759ZM58.7588 56.0202C69.8636 59.7742 77.3936 70.1237 77.5478 81.8451L79.5476 81.8188C79.3822 69.2494 71.3075 58.1511 59.3993 54.1255L58.7588 56.0202ZM77.8766 81.0906C77.7019 81.2487 77.5912 81.3554 77.4491 81.4776L78.7539 82.9934C78.9186 82.8517 79.0935 82.6868 79.2188 82.5734L77.8766 81.0906ZM38.4074 29.1179C42.0024 22.7243 50.0996 20.4557 56.4932 24.0507L57.4734 22.3074C50.1171 18.171 40.8005 20.7812 36.6641 28.1376L38.4074 29.1179ZM56.4932 24.0507C62.8868 27.6457 65.1554 35.7429 61.5604 42.1365L63.3037 43.1167C67.4401 35.7604 64.8298 26.4438 57.4734 22.3074L56.4932 24.0507ZM61.5603 42.1365C60.3676 44.2578 58.6147 46.0107 56.4932 47.2037L57.4735 48.9469C59.9144 47.5744 61.9313 45.5575 63.3037 43.1167L61.5603 42.1365ZM56.9833 47.0753C56.9335 47.0753 56.5419 47.0631 56.2156 47.3895L57.6298 48.8037C57.5102 48.9234 57.3618 49.0054 57.2055 49.0459C57.0752 49.0797 56.9628 49.0753 56.9833 49.0753V47.0753ZM56.4363 47.2229C55.552 47.715 54.6176 48.1108 53.6489 48.4033L54.2269 50.3179C55.3329 49.984 56.3997 49.5322 57.409 48.9704L56.4363 47.2229ZM53.6606 48.3998C53.5413 48.4342 53.4214 48.476 53.3478 48.5006C53.2631 48.529 53.2064 48.5465 53.1542 48.5588L53.6149 50.505C53.759 50.4709 53.8861 50.4295 53.9827 50.3972C54.0902 50.3612 54.1489 50.3405 54.2152 50.3214L53.6606 48.3998ZM53.1328 48.5641C52.823 48.6447 52.4913 48.7021 52.1128 48.7682L52.4568 50.7383C52.8139 50.676 53.2319 50.6049 53.6363 50.4997L53.1328 48.5641ZM52.1125 48.7682C51.4682 48.8809 50.816 48.9464 50.1617 48.9643L50.2165 50.9635C50.9676 50.943 51.7166 50.8678 52.4571 50.7383L52.1125 48.7682ZM50.1891 48.9639H49.782V50.9639H50.1891V48.9639ZM49.8094 48.9643C49.1551 48.9464 48.503 48.8809 47.8586 48.7682L47.514 50.7383C48.2545 50.8678 49.0035 50.943 49.7546 50.9635L49.8094 48.9643ZM47.8633 48.769C47.4899 48.7019 47.1546 48.6448 46.834 48.563L46.3395 50.5009C46.747 50.6048 47.1686 50.6762 47.5093 50.7375L47.8633 48.769ZM46.825 48.5607C46.7756 48.5486 46.722 48.5316 46.6317 48.5011C46.5505 48.4738 46.429 48.432 46.2967 48.3959L45.7702 50.3253C45.8342 50.3428 45.8946 50.3633 45.9938 50.3967C46.0837 50.427 46.2087 50.4688 46.3485 50.5031L46.825 48.5607ZM46.3225 48.4033C45.3536 48.1108 44.4192 47.7152 43.5351 47.2229L42.5622 48.9703C43.5717 49.5324 44.6385 49.9841 45.7445 50.3179L46.3225 48.4033ZM43.3639 47.1476L43.2997 47.1263L42.6692 49.0243L42.7334 49.0456L43.3639 47.1476ZM43.4746 47.2036C37.081 43.6086 34.8124 35.5114 38.4074 29.1179L36.6641 28.1376C32.5277 35.494 35.138 44.8106 42.4943 48.947L43.4746 47.2036ZM85.8591 74.5428C83.5041 63.5587 76.2711 54.2466 66.2112 49.2473L65.3211 51.0383C74.8355 55.7665 81.6763 64.5736 83.9035 74.962L85.8591 74.5428ZM66.5028 50.819C74.877 41.6969 74.2704 27.5133 65.1483 19.1392L63.7958 20.6125C72.1042 28.2397 72.6566 41.1581 65.0295 49.4665L66.5028 50.819ZM65.1483 19.1392C56.0262 10.7651 41.8426 11.3716 33.4685 20.4937L34.9418 21.8462C42.569 13.5378 55.4874 12.9854 63.7958 20.6125L65.1483 19.1392ZM33.4685 20.4937C25.596 29.0695 25.596 42.2434 33.4685 50.819L34.9418 49.4665C27.7716 41.6559 27.7716 29.657 34.9418 21.8462L33.4685 20.4937ZM33.7601 49.2473C23.7002 54.2468 16.4672 63.5587 14.1123 74.5428L16.0678 74.962C18.2951 64.5736 25.1358 55.7667 34.6502 51.0383L33.7601 49.2473ZM15.9054 74.1735C2.53462 55.3397 6.96323 29.2326 25.7971 15.8618L24.6393 14.231C4.90478 28.2412 0.264389 55.5968 14.2746 75.3313L15.9054 74.1735ZM25.7971 15.8618C44.6309 2.491 70.738 6.91961 84.1088 25.7535L85.7396 24.5957C71.7294 4.86116 44.3738 0.220767 24.6393 14.231L25.7971 15.8618ZM84.1088 25.7534C89.135 32.8334 91.8331 41.3022 91.8288 49.985L93.8288 49.9859C93.8333 40.888 91.0062 32.0142 85.7396 24.5957L84.1088 25.7534ZM91.8288 49.9855C91.8288 58.6594 89.1152 67.1159 84.068 74.1706L85.6946 75.3343C90.9846 67.9402 93.8288 59.0768 93.8288 49.9855H91.8288Z" fill="white" mask="url(#path-1-inside-1)"/>
</g>
<defs>
<clipPath id="clip0">
<rect width="100" height="100" fill="white"/>
</clipPath>
</defs>
</svg>
